<svg width="15" height="18" viewBox="0 0 15 18" fill="none" xmlns="http://www.w3.org/2000/svg">
<g clip-path="url(#clip0_613_2)">
<path d="M3.13881 13.2646C3.12494 13.2952 3.11156 13.3261 3.09867 13.3572C2.94037 13.7394 2.85889 14.149 2.85889 14.5626C2.85889 14.9762 2.94037 15.3858 3.09867 15.768C3.25697 16.1501 3.489 16.4973 3.78151 16.7898C4.07397 17.0823 4.42119 17.3144 4.80333 17.4727C5.18549 17.631 5.59509 17.7124 6.00871 17.7124C6.42233 17.7124 6.83193 17.631 7.21409 17.4727C7.5962 17.3144 7.94344 17.0823 8.23592 16.7898L14.0321 10.9941C14.636 10.3902 14.9752 9.57119 14.9752 8.7172C14.9752 7.95015 14.7378 7.21109 14.2193 6.63115C13.9634 6.52059 13.6806 6.48672 13.4067 6.53814C13.1617 6.5841 12.9372 6.72954 12.7502 6.90038L7.24395 12.5513C7.14178 12.6567 7.02429 12.7442 6.89649 12.8114C6.96402 12.7698 7.03063 12.7265 7.09623 12.6812C7.09063 12.6835 7.08502 12.6858 7.07941 12.688C7.08488 12.6843 7.09035 12.6806 7.09578 12.6769C7.10143 12.6731 7.10704 12.6693 7.11265 12.6654C7.10157 12.673 7.09054 12.6805 7.07941 12.688C6.24488 13.2497 5.24895 13.523 4.24387 13.4653C3.8663 13.4436 3.49536 13.3756 3.13881 13.2646Z" fill="#104ADE"/>
<path d="M7.07928 12.6881C7.0904 12.6806 7.10144 12.6731 7.11252 12.6655C6.90097 12.7512 6.67131 12.7827 6.44454 12.757C6.21776 12.7312 6.00096 12.6492 5.81403 12.5182C5.64821 12.4014 5.50984 12.2499 5.40853 12.0742C5.30718 11.8985 5.24531 11.7029 5.22726 11.5009C5.20916 11.2989 5.23524 11.0953 5.30376 10.9044C5.37224 10.7135 5.48148 10.5398 5.62391 10.3954L7.45674 8.54666L10.1335 5.86991C10.1373 5.86672 10.141 5.86348 10.1447 5.8602C10.1523 5.85373 10.1597 5.84725 10.1677 5.84119L10.5705 5.43806C10.7676 5.39739 10.9759 5.37988 11.1933 5.37988C11.664 5.37988 12.0645 5.42584 12.4636 5.54128C13.0442 5.66671 13.5783 5.95768 14.0005 6.38164C14.0802 6.46212 14.1553 6.54769 14.2248 6.63368C13.9675 6.5212 13.6825 6.48642 13.4065 6.53821C13.1616 6.58417 12.937 6.72961 12.7501 6.90044L7.24382 12.5513C7.14165 12.6568 7.02416 12.7443 6.89636 12.8115C6.96388 12.7699 7.03049 12.7265 7.0961 12.6813C7.09049 12.6836 7.08489 12.6858 7.07928 12.6881Z" fill="#0038C7"/>
<path d="M11.5219 1.93758C11.3751 1.58335 11.1599 1.26155 10.8886 0.99062C10.5748 0.676573 10.2022 0.427441 9.79204 0.257465C9.38193 0.0874883 8.94233 0 8.49839 0C8.05441 0 7.6148 0.0874883 7.2047 0.257465C6.79459 0.427441 6.42196 0.676573 6.10819 0.99062L1.33599 5.76146C0.49805 6.59941 0.0191109 7.73056 0.000559631 8.91547C-0.0179916 10.1004 0.425303 11.246 1.2366 12.1098L1.28629 12.1581L1.33781 12.2115C1.38477 12.2576 1.43408 12.3012 1.48553 12.3423C2.25518 13.0118 3.22537 13.4069 4.24382 13.4654C5.26226 13.5239 6.27132 13.2426 7.1126 12.6656C6.90105 12.7513 6.6714 12.7827 6.44462 12.757C6.21784 12.7313 6.00105 12.6492 5.81412 12.5183C5.6483 12.4014 5.50992 12.2499 5.40862 12.0743C5.30726 11.8986 5.2454 11.7029 5.22734 11.5009C5.20924 11.2989 5.23532 11.0954 5.30385 10.9045C5.37233 10.7136 5.48157 10.5399 5.624 10.3955L7.45682 8.54672L10.1336 5.86997C10.145 5.8604 10.1559 5.85036 10.1678 5.84125L10.8886 5.11997C11.2971 4.71182 11.5753 4.19167 11.6881 3.62534C11.8008 3.059 11.7429 2.47194 11.5219 1.93849V1.93758Z" fill="#0F75FC"/>
</g>
<defs>
<clipPath id="clip0_613_2">
<rect width="15" height="17.69" fill="white"/>
</clipPath>
</defs>
</svg>
