<svg height="20" width="260" xmlns="http://www.w3.org/2000/svg"><g fill="none" fill-rule="evenodd"><circle cx="10" cy="10" fill="#227fbb" r="10"/>
<path d="M4.206 1.849 10 7.643l5.794-5.794c.911.648 1.709 1.446 2.357 2.357L12.357 10l5.794 5.794a10.057 10.057 0 0 1-2.357 2.357L10 12.357l-5.794 5.794a10.057 10.057 0 0 1-2.357-2.357L7.643 10 1.849 4.206a10.057 10.057 0 0 1 2.357-2.357z" fill="#fff"/>
<path d="M16.132 2.1c.33.257.644.534.94.829L10.588 9.41l-.884-.884zM2.93 2.93 9.41 9.41l-.884.884L2.1 3.868c.257-.33.534-.644.829-.94zm14.97 13.203c-.256.33-.533.644-.828.94l-6.482-6.483.884-.884zM3.869 17.9c-.33-.257-.644-.534-.94-.829l6.483-6.482.884.884z" fill="#e94b35"/>
<path d="M12.5.315V7.5h7.185c.206.799.315 1.637.315 2.5s-.11 1.701-.315 2.5H12.5v7.185c-.799.206-1.637.315-2.5.315s-1.701-.11-2.5-.315V12.5H.315A10.018 10.018 0 0 1 0 10c0-.863.11-1.701.315-2.5H7.5V.315A10.018 10.018 0 0 1 10 0c.863 0 1.701.11 2.5.315z" fill="#fff"/>
<path d="M11.667.138v8.195h8.195a10.068 10.068 0 0 1 0 3.334h-8.195v8.195a10.068 10.068 0 0 1-3.334 0v-8.195H.138a10.068 10.068 0 0 1 0-3.334h8.195V.138a10.068 10.068 0 0 1 3.334 0z" fill="#e94b35"/>
<path d="M20.569 13.333h18.862C38.058 17.217 34.354 20 30 20c-4.354 0-8.058-2.783-9.431-6.667z" fill="#000"/>
<path d="M20.569 6.667h18.862A9.984 9.984 0 0 1 40 10c0 1.169-.2 2.29-.569 3.333H20.569A9.984 9.984 0 0 1 20 10c0-1.169.2-2.29.569-3.333z" fill="#fff"/>
<path d="M39.431 6.667H20.569C21.942 2.783 25.646 0 30 0c4.354 0 8.058 2.783 9.431 6.667z" fill="#1aaf5d"/>
<path d="M27.5.315v19.37C23.187 18.575 20 14.66 20 10s3.187-8.575 7.5-9.685z" fill="#e94b35"/>
<path d="M41.11 5.417h17.78A9.957 9.957 0 0 1 60 10c0 1.652-.4 3.21-1.11 4.583H41.11A9.957 9.957 0 0 1 40 10c0-1.652.4-3.21 1.11-4.583z" fill="#f2c500"/>
<path d="M58.89 5.417H41.11A10 10 0 0 1 50 0a10 10 0 0 1 8.89 5.417zM41.11 14.583h17.78A10 10 0 0 1 50 20a10 10 0 0 1-8.89-5.417z" fill="#e94b35"/><g transform="translate(41.667 6.25)">
<path d="M.833 2.083c.23 0 .417.187.417.417v4.583h.417V7.5H0v-.417h.417V2.5c0-.23.186-.417.416-.417zM1.875 2.292h4.583v3.61c0 1.247-1.026 1.806-2.291 1.806-1.266 0-2.292-.559-2.292-1.805z" fill="#d9d9d9"/><g fill="#e94b35"><ellipse cx="4.167" cy="1.042" rx="2.083" ry="1.042"/><circle cx=".833" cy="2.292" r="1"/>
<path d="M2.083 2.5h2.084v2.083H2.083z"/></g>
<path d="M2.083 4.583h2.084v1.459a1.042 1.042 0 0 1-2.084 0z" fill="#f2c500"/>
<path d="M4.167 4.583H6.25v1.459a1.042 1.042 0 0 1-2.083 0z" fill="#e94b35"/>
<path d="M7.5 2.083c.23 0 .417.187.417.417v4.583h.416V7.5H6.667v-.417h.416V2.5c0-.23.187-.417.417-.417z" fill="#d9d9d9"/><circle cx="7.5" cy="2.292" fill="#e94b35" r="1"/><circle cx="5.208" cy="3.542" fill="#e94b35" r="1"/></g>
<path d="M66.667.569v18.862C62.783 18.058 60 14.354 60 10c0-4.354 2.783-8.058 6.667-9.431z" fill="#227fbb"/><path d="M73.333.569v18.862A9.984 9.984 0 0 1 70 20c-1.169 0-2.29-.2-3.333-.569V.569A9.984 9.984 0 0 1 70 0c1.169 0 2.29.2 3.333.569z" fill="#fff"/><path d="M73.333 19.431V.569C77.217 1.942 80 5.646 80 10c0 4.354-2.783 8.058-6.667 9.431z" fill="#e94b35"/><path d="M99.431 6.667H80.569C81.942 2.783 85.646 0 90 0c4.354 0 8.058 2.783 9.431 6.667z" fill="#000"/><path d="M80.569 6.667h18.862A9.984 9.984 0 0 1 100 10c0 1.169-.2 2.29-.569 3.333H80.569A9.984 9.984 0 0 1 80 10c0-1.169.2-2.29.569-3.333z" fill="#e94b35"/><path d="M80.569 13.333h18.862C98.058 17.217 94.354 20 90 20c-4.354 0-8.058-2.783-9.431-6.667z" fill="#f2c500"/><path d="M106.667 19.431V.569A9.984 9.984 0 0 1 110 0c5.523 0 10 4.477 10 10s-4.477 10-10 10c-1.169 0-2.29-.2-3.333-.569z" fill="#e94b35"/><path d="M106.667.569v18.862C102.783 18.058 100 14.354 100 10c0-4.354 2.783-8.058 6.667-9.431z" fill="#1aaf5d"/><path d="M106.667 13.75a4.167 4.167 0 1 1 0-8.333 4.167 4.167 0 0 1 0 8.333zm0-.833a3.333 3.333 0 1 0 0-6.667 3.333 3.333 0 0 0 0 6.667z" fill="#f2c500"/><path d="M108.958 7.292V10a2.292 2.292 0 1 1-4.583 0V7.292z" fill="#f2c500" fill-rule="nonzero"/><path d="M104.583 7.5h4.167V10a2.083 2.083 0 0 1-4.167 0z" fill="#e94b35" fill-rule="nonzero"/><path d="M105.417 10a1.25 1.25 0 0 0 2.5 0V8.333h-2.5z" fill="#fff"/><g fill="#2c97de"><path d="M106.458 8.75h.5v.5h-.5zM105.833 9.583h.5v.5h-.5zM107.083 9.583h.5v.5h-.5zM106.458 10.417h.5v.5h-.5zM106.458 9.583h.5v.5h-.5z"/></g><path d="M139.431 6.667h-18.862C121.942 2.783 125.646 0 130 0c4.354 0 8.058 2.783 9.431 6.667z" fill="#fff"/><path d="M120.569 6.667h18.862A9.984 9.984 0 0 1 140 10c0 1.169-.2 2.29-.569 3.333h-18.862A9.984 9.984 0 0 1 120 10c0-1.169.2-2.29.569-3.333z" fill="#227fbb"/><path d="M120.569 13.333h18.862C138.058 17.217 134.354 20 130 20c-4.354 0-8.058-2.783-9.431-6.667z" fill="#e94b35"/><g transform="translate(140)"><circle cx="10" cy="10" fill="#e94b35" r="10"/><path d="m10 12-2.939 2.045 1.037-3.427-2.853-2.163 3.58-.073L10 5l1.176 3.382 3.58.073-2.854 2.163 1.037 3.427z" fill="#f2c500"/></g><g transform="translate(160)"><path d="M.569 13.333h18.862C18.058 17.217 14.354 20 10 20c-4.354 0-8.058-2.783-9.431-6.667z" fill="#1aaf5d"/><path d="M.569 6.667h18.862A9.984 9.984 0 0 1 20 10c0 1.169-.2 2.29-.569 3.333H.569A9.984 9.984 0 0 1 0 10c0-1.169.2-2.29.569-3.333z" fill="#fff"/><path d="M19.431 6.667H.569C1.942 2.783 5.646 0 10 0c4.354 0 8.058 2.783 9.431 6.667z" fill="#e87e04"/><circle cx="10" cy="10" fill="#227fbb" r="2.917"/><circle cx="10" cy="10" fill="#fff" r="2.5"/><circle cx="10" cy="10" fill="#227fbb" r="1"/></g><circle cx="190" cy="10" fill="#fff" r="10"/><circle cx="190" cy="10" fill="#e94b35" r="5"/><g transform="translate(200)"><circle cx="10" cy="10" fill="#fff" r="10"/><g fill="#000"><path d="m2.12 6.564 2.039-3.022.431.291-2.038 3.023zm.863.583 2.04-3.023.431.292-2.039 3.022zm.864.582 2.039-3.022.432.291-2.04 3.023zM4.279 11.98l2.039 3.022-.432.291-2.039-3.022zm-.864.582.874 1.295-.432.291-.874-1.295zm1.165 1.727.874 1.295-.432.292-.874-1.296zm-2.028-1.145 2.038 3.023-.431.291-2.04-3.022zM15.841 3.542l.874 1.295-.432.291-.873-1.295zm1.165 1.727.874 1.295-.432.292-.873-1.296zm-2.028-1.145 2.039 3.023-.432.291-2.039-3.022zm-.864.583.874 1.295-.432.291-.874-1.295zm1.165 1.727.874 1.295-.432.292-.874-1.296zM13.682 15.002l.874-1.295.432.29-.874 1.296zm1.165-1.727.874-1.296.432.292-.874 1.295zm-.301 2.31.874-1.296.432.291-.874 1.296zm1.165-1.728.874-1.295.432.291-.874 1.295zm-.301 2.31.873-1.295.432.29-.874 1.296zm1.165-1.727.873-1.296.432.292-.874 1.295z"/></g><circle cx="10" cy="10" fill="#e94b35" r="4.167"/><path d="M14.167 10a4.167 4.167 0 1 1-8.334 0A2.083 2.083 0 0 0 10 10a2.083 2.083 0 1 1 4.167 0z" fill="#227fbb"/></g><g transform="translate(220)"><circle cx="10" cy="10" fill="#e94b35" r="10"/><g fill="#f2c500"><path d="M5.208 7.292 3.372 8.57l.648-2.142-1.784-1.352 2.238-.046.734-2.113.735 2.113 2.237.046-1.783 1.352.648 2.142zM8.636 3.647l-.577.152.358-.477-.324-.502.565.193.377-.463-.009.597.557.215-.57.177-.033.595zM10.583 5.248l-.253.54-.136-.581-.592-.075.51-.308L10 4.238l.452.39.522-.288-.231.55.435.408zM10.359 7.452l-.542.25.27-.532-.406-.438.59.092.29-.521.095.59.586.115-.531.272.071.593zM8.636 9.063l-.577.153.358-.478-.324-.501.565.193.377-.463-.009.597.557.215-.57.176-.033.596z"/></g></g><g transform="translate(240)"><circle cx="10" cy="10" fill="#e94b35" r="10"/><g fill="#fff"><path d="M12.291 7.243a3.333 3.333 0 1 0 0 5.514 4.167 4.167 0 1 1 0-5.514z"/><path d="m14.299 10.69-.634 1.184-.237-1.322-1.322-.237 1.184-.634-.183-1.33.969.93 1.208-.585-.585 1.209.93.968z"/></g></g></g></svg>