<svg width="500" height="150" viewBox="0 0 500 150" fill="none" xmlns="http://www.w3.org/2000/svg">
<g clip-path="url(#clip0_751_11)">
<path d="M119.521 149.669C117.61 149.669 115.698 149.223 113.85 148.904C103.211 147.12 92.9286 143.635 83.3968 138.583C68.0905 130.481 54.7223 119.157 44.2151 105.39C43.9539 104.937 43.6054 104.54 43.1898 104.223C42.7742 103.906 42.2998 103.675 41.7941 103.542C30.9925 101.984 21.0172 96.8732 13.4429 89.0159C5.97591 81.1927 1.25738 71.1518 0 60.41C0 59.9005 0 58.7536 0 57.1609C0 52.9559 0 50.79 0 46.3936C0 41.9977 0.955659 40.0227 1.8476 36.646C4.50946 26.3983 10.436 17.296 18.7309 10.7159C26.8195 4.50737 36.5845 0.867701 46.7636 0.267361C59.0127 -0.966663 71.31 2.09641 81.5495 8.932C90.8009 15.1982 97.5641 24.5086 100.663 35.2444C102.68 41.7755 103.5 48.6177 103.084 55.4405C102.774 68.2096 97.6805 80.3968 88.8123 89.5896C82.3245 96.2846 74.0195 100.935 64.9209 102.969C63.0223 103.244 61.1055 103.371 59.1873 103.351L56.9573 103.542L57.9127 104.816C69.8977 118.304 85.3077 128.298 102.51 133.741C114.138 137.517 126.492 138.499 138.57 136.608C148.756 135.52 158.585 132.241 167.383 126.995C176.181 121.75 183.74 114.661 189.539 106.218C197.605 92.5127 201.46 76.7368 200.625 60.8559C200.625 56.46 200.943 49.7068 200.625 45.3107C200.625 43.2082 200.625 41.0421 200.306 38.9396C200.306 37.7929 200.815 37.6654 202.472 37.9203C204.816 38.2683 207.2 38.2683 209.544 37.9203C211.009 37.9203 211.71 37.9203 211.774 38.8122C211.774 44.4187 211.774 50.0891 211.774 55.7591V60.9196C211.512 67.9782 210.874 75.0177 209.862 82.0077C208.523 92.1668 205.326 101.993 200.433 110.996C191.538 124.988 178.578 135.925 163.29 142.342C157.259 145.375 150.821 147.521 144.177 148.713L136.532 149.86L119.521 149.669ZM51.7968 11.4804C48.6109 11.9264 45.4256 12.1812 42.3038 12.8183C37.7035 13.747 33.3368 15.5903 29.4625 18.2388C25.5883 20.8873 22.2855 24.287 19.7503 28.2363C15.9592 33.8382 13.5645 40.2664 12.7664 46.9832C11.9684 53.7 12.7902 60.5105 15.1631 66.845C18.28 76.2586 24.9333 84.0932 33.7182 88.6936C42.5031 93.2941 52.7318 94.3009 62.245 91.5009C68.8073 89.8414 74.7741 86.3777 79.4691 81.5023C84.1645 76.6268 87.4014 70.5341 88.8123 63.9141C90.7227 56.5609 90.7227 48.8414 88.8123 41.488C86.7505 32.3064 81.3741 24.208 73.7132 18.7434C67.2768 14.2281 59.6559 11.7026 51.7968 11.4804Z" fill="#7A7A7A"/>
<path d="M419.725 86.8504L421.7 91.629C422.146 92.7118 422.464 93.9227 423.038 95.0054C423.138 95.1622 423.205 95.3381 423.234 95.5222C423.263 95.7059 423.253 95.894 423.205 96.0736C423.157 96.2536 423.072 96.4218 422.955 96.5668C422.839 96.7118 422.693 96.8313 422.528 96.9168C418.777 99.9145 414.435 102.085 409.786 103.288C403.015 105.195 395.873 105.37 389.016 103.798C383.423 102.832 378.218 100.304 374.001 96.5045C369.785 92.705 366.729 87.79 365.189 82.3272C362.288 73.23 362.855 63.3809 366.781 54.6768C368.361 50.979 370.695 47.6518 373.636 44.9091C376.576 42.1663 380.057 40.0681 383.856 38.7492C391.49 35.8115 399.903 35.5865 407.684 38.1121C411.832 39.3745 415.626 41.595 418.758 44.5943C421.89 47.5936 424.273 51.2877 425.714 55.3777C427.575 60.9322 428.099 66.8477 427.243 72.6431C427.243 73.8536 426.605 74.2359 425.331 74.2359H376.975C377.06 76.8154 377.667 79.3513 378.759 81.69C380.192 84.9036 382.45 87.6809 385.303 89.7395C388.156 91.7986 391.504 93.0659 395.005 93.4127C402.14 94.5545 409.451 93.2763 415.775 89.7813C416.435 89.4159 417.073 89.0118 417.686 88.5709L419.725 86.8504ZM376.274 64.6159H413.736C413.736 64.6159 414.245 64.6159 414.373 64.6159C414.5 64.6159 415.265 63.9786 415.265 63.66C415.187 62.4554 414.995 61.2609 414.692 60.0922C414.231 57.9913 413.343 56.0077 412.082 54.265C410.821 52.5222 409.216 51.0577 407.365 49.9622C402.346 47.2063 396.456 46.4986 390.928 47.9872C388.385 48.5113 385.982 49.565 383.875 51.08C381.767 52.595 380.002 54.5368 378.695 56.779C377.291 59.145 376.462 61.8072 376.274 64.5518V64.6159Z" fill="#7A7A7A"/>
<path d="M165.265 94.3039C163.545 95.833 162.143 97.2344 160.614 98.3812C157.352 100.913 153.605 102.745 149.604 103.764C145.603 104.783 141.435 104.968 137.36 104.306C133.737 103.949 130.276 102.626 127.34 100.474C124.404 98.3221 122.1 95.4212 120.668 92.0739C118.886 88.0607 117.953 83.7225 117.928 79.3316C117.928 66.0803 117.928 52.8285 117.928 39.6402C117.928 38.366 118.374 38.0475 119.521 38.1112H127.803C129.587 38.1112 129.587 38.1112 129.587 39.8314C129.587 50.7257 129.587 61.5566 129.587 72.4512C129.46 75.9675 129.825 79.4839 130.67 82.8998C131.37 85.9048 133.041 88.5953 135.426 90.5535C137.81 92.5116 140.775 93.6285 143.858 93.7303C147.864 94.0912 151.896 93.4266 155.574 91.7994C159.252 90.1721 162.455 87.6357 164.883 84.4289C165.287 83.8516 165.489 83.1571 165.456 82.4535C165.329 68.1825 165.265 53.9753 165.265 39.8314C165.265 38.4935 165.265 38.0475 166.921 38.1112C169.789 38.1112 172.655 38.1112 175.459 38.1112C176.478 38.1112 176.86 38.1112 176.86 39.4491C176.86 60.3462 176.86 81.2644 176.86 102.204C176.86 103.16 176.86 103.542 175.65 103.542H166.73C165.711 103.542 165.392 103.542 165.456 102.204C165.265 99.4644 165.265 97.1707 165.265 94.3039Z" fill="#7A7A7A"/>
<path d="M498.727 37.9835L491.4 47.8587C486.305 54.7391 481.205 61.6201 476.109 68.4369C475.473 69.2655 476.109 69.7751 476.109 70.4123L499.173 101.885L500 103.096H498.855C494.841 103.096 490.827 103.096 486.814 103.096C486.482 103.07 486.159 102.977 485.864 102.824C485.564 102.671 485.305 102.46 485.091 102.204C479.232 94.176 473.368 86.1487 467.573 78.121L466.614 76.9105L463.75 80.7332C458.459 87.8687 453.236 95.0041 447.949 102.14C447.74 102.406 447.48 102.626 447.185 102.791C446.889 102.955 446.564 103.058 446.228 103.096C442.342 103.096 438.456 103.096 434.57 103.096H433.614L438.201 96.7246C444.572 88.1237 450.943 79.5228 457.314 71.2405C457.482 71.0796 457.614 70.8869 457.705 70.6732C457.795 70.4601 457.845 70.2301 457.845 69.9978C457.845 69.766 457.795 69.536 457.705 69.3228C457.614 69.1091 457.482 68.9164 457.314 68.7555L435.907 38.8754L435.398 37.9835H436.545H448.458C448.834 37.9503 449.212 38.0221 449.549 38.1908C449.886 38.3596 450.17 38.6186 450.37 38.9391L466.295 61.1741C467.191 62.4482 467.255 62.4482 468.209 61.1741L484.391 39.0666C484.786 38.5211 485.382 38.1546 486.045 38.0472C489.932 38.0472 493.818 38.0472 497.705 38.0472L498.727 37.9835Z" fill="#7A7A7A"/>
<path d="M279.944 85.2573C281.728 87.9968 283.512 90.6091 285.168 93.285C285.168 93.285 285.168 94.2405 284.85 94.4955C281.635 98.2977 277.42 101.123 272.681 102.65C264.427 105.51 255.451 105.51 247.197 102.65C242.038 101.105 237.39 98.2023 233.736 94.2459C230.082 90.29 227.558 85.4255 226.427 80.1605C223.983 71.2059 225.055 61.6564 229.421 53.4659C231.46 49.4109 234.376 45.8605 237.958 43.0727C241.539 40.2847 245.696 38.3289 250.127 37.347C259.527 35.0577 269.433 36.1634 278.096 40.4688C279.992 41.5304 281.784 42.7676 283.448 44.1641C283.628 44.3443 283.758 44.5684 283.825 44.8141C283.892 45.06 283.894 45.319 283.83 45.5655C282.238 48.3691 280.581 51.1723 278.861 54.1664L277.268 52.5736C273.809 49.7996 269.685 47.9759 265.305 47.2832C260.925 46.5905 256.44 47.0523 252.294 48.6236C248.172 50.075 244.591 52.75 242.03 56.2905C239.468 59.8309 238.048 64.0686 237.959 68.4377C237.616 71.4482 237.89 74.4968 238.765 77.3977C239.639 80.2986 241.095 82.9909 243.045 85.31C244.995 87.6296 247.396 89.5273 250.104 90.8873C252.811 92.2473 255.768 93.0414 258.792 93.2209C262.523 93.6232 266.297 93.1727 269.829 91.9032C273.36 90.6341 276.558 88.5796 279.18 85.8946L279.944 85.2573Z" fill="#7A7A7A"/>
<path d="M300.204 52.2553C300.204 35.9454 300.204 19.6355 300.204 3.32563C300.204 1.47803 300.204 1.47803 301.988 1.47803H310.525C311.799 1.60545 311.799 1.60545 311.799 2.68853C311.799 3.7716 311.799 3.1345 311.799 3.32563C311.799 36.1578 311.799 68.8412 311.799 101.376C311.799 103.16 311.799 103.16 309.952 103.16C308.104 103.16 304.409 103.16 301.669 103.16C300.522 103.16 300.204 103.16 300.204 101.695C300.204 85.2149 300.204 68.7349 300.204 52.2553Z" fill="#7A7A7A"/>
<path d="M359.646 103.097H358.244H344.865C344.138 103.054 343.454 102.735 342.954 102.206L315.112 70.3501C314.348 69.4582 314.348 68.9482 315.112 68.0564L340.596 39.0045C341.008 38.488 341.6 38.1465 342.253 38.0488H355.505H356.269L354.103 40.4698L329.702 67.0369C328.937 67.8655 328.874 68.3751 329.702 69.2669L351.045 93.1582L359.646 103.097Z" fill="#7A7A7A"/>
<path d="M206.104 20.7177C205.105 20.7739 204.105 20.6174 203.171 20.2586C202.236 19.8998 201.389 19.3468 200.685 18.6362C199.98 17.9257 199.435 17.0737 199.084 16.1365C198.733 15.1994 198.585 14.1984 198.65 13.1999C198.639 12.2522 198.824 11.3124 199.193 10.4396C199.563 9.5668 200.108 8.77971 200.796 8.12771C201.484 7.47571 202.3 6.97289 203.191 6.65071C204.082 6.32852 205.03 6.19393 205.976 6.25543C206.919 6.19339 207.865 6.32807 208.752 6.65089C209.64 6.97366 210.452 7.47757 211.135 8.13052C211.818 8.78352 212.357 9.57139 212.72 10.4441C213.082 11.3168 213.259 12.2552 213.239 13.1999C213.32 14.1752 213.195 15.1567 212.87 16.0799C212.545 17.0033 212.029 17.8475 211.355 18.5573C210.682 19.2672 209.865 19.8266 208.96 20.1989C208.055 20.5712 207.082 20.748 206.104 20.7177Z" fill="#7A7A7A"/>
</g>
<defs>
<clipPath id="clip0_751_11">
<rect width="500" height="150" fill="white"/>
</clipPath>
</defs>
</svg>
