<svg width="500" height="76" viewBox="0 0 500 76" fill="none" xmlns="http://www.w3.org/2000/svg">
<path fill-rule="evenodd" clip-rule="evenodd" d="M42.4021 6.10036C39.3833 5.18628 36.181 4.69482 32.8638 4.69482C14.7136 4.69482 0 19.4085 0 37.5587C0 55.3843 14.192 69.8951 31.8934 70.4084C31.8941 70.0307 31.9178 69.65 31.9653 69.2674L32.7108 63.2519C18.5911 63.1695 7.17028 51.6979 7.17028 37.5587C7.17028 23.3685 18.6737 11.8651 32.8638 11.8651C34.7826 11.8651 36.6523 12.0755 38.4512 12.4744L42.4021 6.10036Z" fill="#7A7A7A"/>
<path d="M57.3699 58.0797C59.9567 59.1041 62.7762 59.6672 65.7276 59.6672C78.2678 59.6672 88.4335 49.5015 88.4335 36.9614C88.4335 24.4212 78.2678 14.2554 65.7276 14.2554C63.8492 14.2554 62.0243 14.4834 60.2788 14.9134L59.2992 22.8138C61.2584 21.9223 63.4349 21.4257 65.7276 21.4257C74.3077 21.4257 81.2633 28.3813 81.2633 36.9614C81.2633 45.5414 74.3077 52.497 65.7276 52.497C64.1668 52.497 62.6595 52.2668 61.2384 51.8386L57.3699 58.0797Z" fill="#7A7A7A"/>
<path d="M65.2834 31.703C65.4773 31.39 65.2524 30.986 64.8843 30.986H51.5926C51.3104 30.986 51.0919 30.7389 51.1266 30.4588L54.0571 6.82068C54.1188 6.32089 53.4573 6.08751 53.1921 6.51558L30.3207 43.4147C30.1268 43.7276 30.3517 44.1316 30.7198 44.1316H44.0116C44.2937 44.1316 44.5123 44.3788 44.4775 44.6588L41.5473 68.2968C41.4853 68.7968 42.1468 69.0302 42.412 68.602L65.2834 31.703Z" fill="#7A7A7A"/>
<path d="M234.483 57.8744V17.7207H265.345V24.9484H242.801V34.1263H257.657V41.1244H242.801V50.6467H265.573V57.8744H234.483Z" fill="#7A7A7A"/>
<path d="M267.277 57.8742L278.751 42.673L267.566 27.9883H276.686L283.282 36.8796L289.822 27.9883H298.655L287.641 42.5585L299.343 57.8742H290.167L283.11 48.3519L276.054 57.8742H267.277Z" fill="#7A7A7A"/>
<path d="M314.136 51.5646C315.474 51.5646 316.716 51.2967 317.864 50.7615C319.049 50.2261 320.178 49.3848 321.249 48.2376L325.951 53.1132C324.422 54.7958 322.587 56.1153 320.446 57.0711C318.303 57.989 316.084 58.4479 313.791 58.4479C311.61 58.4479 309.547 58.0465 307.596 57.2434C305.683 56.4404 304.021 55.3505 302.606 53.9737C301.228 52.597 300.138 50.9718 299.336 49.0979C298.533 47.1859 298.131 45.1399 298.131 42.9601C298.131 40.7803 298.533 38.7535 299.336 36.8798C300.138 34.9676 301.228 33.3233 302.606 31.9465C304.021 30.5317 305.683 29.4226 307.596 28.6195C309.547 27.8164 311.61 27.415 313.791 27.415C316.162 27.415 318.436 27.893 320.617 28.8491C322.796 29.7667 324.652 31.0669 326.181 32.7495L321.364 37.8549C320.291 36.6695 319.145 35.7707 317.92 35.1589C316.697 34.547 315.378 34.2411 313.962 34.2411C311.706 34.2411 309.796 35.0824 308.228 36.765C306.697 38.4477 305.932 40.5127 305.932 42.9601C305.932 45.4075 306.716 47.4535 308.284 49.0979C309.89 50.7423 311.84 51.5646 314.136 51.5646Z" fill="#7A7A7A"/>
<path d="M330.038 57.8746V17.7209L337.897 16V30.3406C339.042 29.3845 340.305 28.6579 341.683 28.1607C343.096 27.6636 344.627 27.4152 346.27 27.4152C349.714 27.4152 352.542 28.5241 354.761 30.7422C356.979 32.96 358.087 35.8091 358.087 39.2892V57.8746H350.23V40.4363C350.23 38.5626 349.655 37.0521 348.507 35.9046C347.399 34.7575 345.909 34.1838 344.033 34.1838C342.735 34.1838 341.549 34.4516 340.477 34.987C339.446 35.484 338.585 36.2107 337.897 37.1666V57.8746H330.038Z" fill="#7A7A7A"/>
<path d="M386.355 57.8742V55.4076C385.169 56.3637 383.85 57.0902 382.397 57.5874C380.944 58.0463 379.432 58.2756 377.864 58.2756C375.761 58.2756 373.772 57.8742 371.899 57.0709C370.063 56.2679 368.458 55.1782 367.08 53.8015C365.704 52.4247 364.615 50.7994 363.81 48.9256C363.047 47.0517 362.664 45.0442 362.664 42.9026C362.664 40.7611 363.066 38.7533 363.869 36.8796C364.671 35.0057 365.761 33.3803 367.139 32.0038C368.514 30.6271 370.141 29.5562 372.014 28.7914C373.925 27.9883 375.953 27.5869 378.094 27.5869C379.547 27.5869 380.962 27.7972 382.338 28.2179C383.754 28.6003 385.054 29.1738 386.239 29.9388V27.9883H394.099V57.8742H386.355ZM370.408 42.9026C370.408 45.3118 371.249 47.3578 372.932 49.0404C374.615 50.7231 376.678 51.5644 379.127 51.5644C380.58 51.5644 381.899 51.3158 383.085 50.8186C384.308 50.3214 385.359 49.6139 386.239 48.6961V37.0517C385.399 36.1721 384.347 35.4836 383.085 34.9867C381.862 34.4895 380.542 34.2409 379.127 34.2409C376.641 34.2409 374.556 35.0822 372.873 36.7648C371.23 38.4092 370.408 40.4552 370.408 42.9026Z" fill="#7A7A7A"/>
<path d="M400.284 57.8744V27.9885H408.143V30.3404C409.289 29.3843 410.552 28.6578 411.93 28.1606C413.343 27.6634 414.873 27.415 416.516 27.415C419.96 27.415 422.789 28.524 425.007 30.742C427.225 32.9599 428.333 35.8089 428.333 39.289V57.8744H420.476V40.4362C420.476 38.5625 419.901 37.0519 418.753 35.9045C417.646 34.7573 416.155 34.1836 414.279 34.1836C412.981 34.1836 411.796 34.4514 410.723 34.9869C409.692 35.4838 408.831 36.2106 408.143 37.1664V57.8744H400.284Z" fill="#7A7A7A"/>
<path d="M448.054 58.0467C445.951 58.0467 443.963 57.645 442.089 56.842C440.254 56.0389 438.646 54.949 437.27 53.5723C435.932 52.1957 434.862 50.5894 434.056 48.754C433.294 46.88 432.911 44.8725 432.911 42.731C432.911 40.6277 433.312 38.6582 434.115 36.8225C434.918 34.9488 436.007 33.3234 437.385 31.9467C438.761 30.5702 440.387 29.4993 442.261 28.7345C444.134 27.9314 446.141 27.5298 448.284 27.5298C449.775 27.5298 451.19 27.7401 452.528 28.1608C453.904 28.5814 455.186 29.1742 456.371 29.9392V27.9887H464.115V57.8746C464.115 61.8133 462.833 64.8537 460.272 66.995C457.749 69.1366 454.096 70.2075 449.315 70.2075C447.021 70.2075 444.803 69.9779 442.662 69.519C440.559 69.0601 438.627 68.391 436.869 67.5115L439.622 61.3737C441.265 62.1767 442.871 62.7695 444.439 63.1518C446.007 63.5725 447.575 63.7828 449.143 63.7828C451.477 63.7828 453.235 63.2666 454.42 62.234C455.646 61.2399 456.256 59.7676 456.256 57.8171V55.3507C455.071 56.2303 453.77 56.8993 452.357 57.3582C450.979 57.8171 449.545 58.0467 448.054 58.0467ZM440.655 42.731C440.655 45.1401 441.477 47.1861 443.12 48.8688C444.803 50.5514 446.85 51.3927 449.258 51.3927C450.674 51.3927 451.974 51.1631 453.16 50.7042C454.345 50.207 455.378 49.5378 456.256 48.6965V36.9373C455.416 36.096 454.383 35.4457 453.16 34.9871C451.934 34.4899 450.655 34.2413 449.315 34.2413C446.906 34.2413 444.862 35.0634 443.179 36.7077C441.495 38.3523 440.655 40.3598 440.655 42.731Z" fill="#7A7A7A"/>
<path d="M497.094 54.1456C495.258 55.637 493.366 56.7269 491.416 57.4154C489.502 58.1036 487.362 58.4478 484.991 58.4478C482.735 58.4478 480.613 58.0463 478.624 57.2433C476.674 56.4402 474.972 55.3503 473.519 53.9736C472.103 52.5968 470.977 50.9717 470.134 49.0978C469.331 47.1858 468.93 45.1398 468.93 42.96C468.93 40.8184 469.312 38.8107 470.078 36.937C470.88 35.0247 471.97 33.3804 473.348 32.0039C474.723 30.5888 476.348 29.4799 478.223 28.6769C480.134 27.8736 482.162 27.4722 484.303 27.4722C486.406 27.4722 488.357 27.8928 490.153 28.7341C491.988 29.5372 493.556 30.6461 494.857 32.0611C496.195 33.4762 497.228 35.1778 497.955 37.1663C498.721 39.1168 499.103 41.2391 499.103 43.5337V45.5987H476.845C477.38 47.4724 478.413 48.983 479.944 50.1304C481.472 51.2776 483.27 51.851 485.336 51.851C486.636 51.851 487.859 51.6407 489.007 51.2201C490.153 50.7994 491.129 50.2067 491.932 49.4419L497.094 54.1456ZM484.132 33.9541C482.333 33.9541 480.784 34.5086 479.484 35.6177C478.183 36.6884 477.286 38.1417 476.789 39.9771H491.416C490.918 38.2179 490 36.7839 488.662 35.675C487.362 34.5278 485.852 33.9541 484.132 33.9541Z" fill="#7A7A7A"/>
<path d="M114.212 57.8743V17.7207H122.53V50.5319H144.5V57.8743H114.212Z" fill="#7A7A7A"/>
<path d="M175.216 54.1456C173.38 55.6372 171.487 56.7271 169.537 57.4154C167.625 58.1036 165.483 58.448 163.112 58.448C160.856 58.448 158.734 58.0463 156.745 57.2433C154.795 56.4402 153.093 55.3503 151.64 53.9736C150.225 52.5971 149.097 50.9717 148.255 49.0978C147.452 47.1858 147.051 45.1398 147.051 42.96C147.051 40.8186 147.433 38.8109 148.198 36.937C149.001 35.025 150.091 33.3806 151.468 32.0039C152.844 30.5888 154.47 29.4799 156.344 28.6769C158.255 27.8738 160.282 27.4722 162.424 27.4722C164.527 27.4722 166.478 27.8928 168.275 28.7341C170.11 29.5372 171.678 30.6463 172.978 32.0611C174.317 33.4762 175.35 35.1778 176.076 37.1665C176.841 39.1168 177.223 41.2393 177.223 43.5337V45.5987H154.967C155.502 47.4726 156.535 48.9832 158.064 50.1304C159.594 51.2776 161.391 51.8513 163.456 51.8513C164.757 51.8513 165.98 51.6409 167.128 51.2203C168.275 50.7996 169.25 50.2069 170.053 49.4421L175.216 54.1456ZM162.252 33.9541C160.454 33.9541 158.906 34.5088 157.605 35.6177C156.305 36.6884 155.407 38.1417 154.909 39.9773H169.537C169.04 38.2182 168.122 36.7841 166.783 35.675C165.483 34.5278 163.973 33.9541 162.252 33.9541Z" fill="#7A7A7A"/>
<path d="M184.99 49.4421V34.585H178.853V27.9886H184.99V20.3593L192.849 18.5811V27.9886H201.339V34.585H192.849V47.8357C192.849 49.2508 193.155 50.2451 193.767 50.8186C194.379 51.3923 195.449 51.6792 196.979 51.6792C197.706 51.6792 198.394 51.6409 199.044 51.5644C199.694 51.4496 200.402 51.2585 201.167 50.9907V57.4153C200.325 57.6829 199.312 57.8933 198.126 58.0463C196.941 58.2376 195.927 58.3332 195.086 58.3332C191.759 58.3332 189.235 57.5874 187.514 56.0961C185.832 54.5663 184.99 52.3484 184.99 49.4421Z" fill="#7A7A7A"/>
<path d="M203.266 54.3178L207.166 49.0979C208.925 50.2453 210.589 51.1056 212.157 51.6793C213.725 52.2145 215.293 52.4824 216.86 52.4824C218.62 52.4824 220.015 52.1955 221.048 51.6218C222.119 51.0483 222.654 50.2835 222.654 49.3274C222.654 48.5626 222.348 47.9507 221.736 47.4918C221.163 47.0328 220.226 46.708 218.925 46.5166L213.189 45.6563C210.245 45.1974 207.988 44.2413 206.421 42.788C204.891 41.3349 204.126 39.4037 204.126 36.9946C204.126 34.1263 205.254 31.8319 207.51 30.111C209.767 28.3901 212.788 27.5298 216.574 27.5298C218.753 27.5298 220.876 27.8547 222.941 28.5049C225.006 29.1166 226.975 30.0345 228.849 31.2582L225.063 36.3061C223.419 35.3502 221.851 34.6427 220.36 34.1838C218.868 33.6866 217.358 33.438 215.828 33.438C214.413 33.438 213.266 33.7056 212.386 34.2411C211.545 34.7765 211.124 35.484 211.124 36.3636C211.124 37.1666 211.43 37.7976 212.042 38.2565C212.692 38.6772 213.744 38.9831 215.197 39.1742L220.933 40.0347C223.84 40.4554 226.077 41.4115 227.645 42.9028C229.251 44.3943 230.054 46.2873 230.054 48.5817C230.054 49.9967 229.71 51.3159 229.021 52.5396C228.371 53.7251 227.473 54.7577 226.325 55.6373C225.178 56.5169 223.801 57.2051 222.195 57.7023C220.589 58.1995 218.849 58.4481 216.975 58.4481C214.26 58.4481 211.717 58.1037 209.346 57.4155C206.975 56.6889 204.948 55.6563 203.266 54.3178Z" fill="#7A7A7A"/>
</svg>
