<svg width="1646" height="317" viewBox="0 0 1646 317" fill="none" xmlns="http://www.w3.org/2000/svg">
<path d="M132.467 187.338C132.467 178.138 129.221 171.104 122.727 166.234C116.234 161.255 104.545 156.061 87.6623 150.649C70.7792 145.13 57.4134 139.719 47.5649 134.416C20.7251 119.913 7.30519 100.379 7.30519 75.8117C7.30519 63.0411 10.8766 51.6775 18.0195 41.7208C25.2706 31.6558 35.606 23.8095 49.026 18.1818C62.5541 12.5541 77.7056 9.74026 94.4805 9.74026C111.364 9.74026 126.407 12.8247 139.61 18.9935C152.814 25.0541 163.041 33.658 170.292 44.8052C177.651 55.9524 181.331 68.6147 181.331 82.7922H132.63C132.63 71.9697 129.221 63.5822 122.403 57.6298C115.584 51.5692 106.006 48.5389 93.6688 48.5389C81.764 48.5389 72.5108 51.0822 65.9091 56.1688C59.3073 61.1472 56.0065 67.7489 56.0065 75.974C56.0065 83.658 59.8485 90.0974 67.5324 95.2922C75.3246 100.487 86.7424 105.357 101.786 109.903C129.491 118.236 149.675 128.571 162.338 140.909C175 153.247 181.331 168.615 181.331 187.013C181.331 207.467 173.593 223.539 158.117 235.227C142.641 246.807 121.807 252.597 95.6168 252.597C77.435 252.597 60.8766 249.296 45.9415 242.695C31.0065 235.985 19.5887 226.84 11.6883 215.26C3.8961 203.68 0 190.26 0 175H48.8636C48.8636 201.082 64.448 214.123 95.6168 214.123C107.197 214.123 116.234 211.796 122.727 207.143C129.221 202.381 132.467 195.779 132.467 187.338Z" fill="#7A7A7A"/>
<path d="M330.37 73.7013L331.831 93.3441C344.277 78.0844 361.106 70.4545 382.318 70.4545C404.937 70.4545 420.467 79.3831 428.909 97.2402C441.247 79.3831 458.833 70.4545 481.669 70.4545C500.716 70.4545 514.894 76.0281 524.201 87.1753C533.508 98.2142 538.162 114.881 538.162 137.175V249.351H491.084V137.338C491.084 127.381 489.136 120.13 485.24 115.584C481.344 110.931 474.472 108.604 464.623 108.604C450.554 108.604 440.814 115.314 435.402 128.734L435.565 249.351H388.649V137.5C388.649 127.327 386.647 119.967 382.643 115.422C378.638 110.877 371.82 108.604 362.188 108.604C348.876 108.604 339.244 114.123 333.292 125.162V249.351H286.377V73.7013H330.37Z" fill="#7A7A7A"/>
<path d="M725.831 163.149C725.831 190.206 719.662 211.905 707.324 228.247C695.095 244.48 678.536 252.597 657.649 252.597C639.9 252.597 625.56 246.428 614.63 234.091V316.883H567.714V73.7013H611.22L612.844 90.9091C624.208 77.2727 639.034 70.4545 657.324 70.4545C678.969 70.4545 695.798 78.4632 707.811 94.4805C719.824 110.498 725.831 132.576 725.831 160.714V163.149ZM678.915 159.74C678.915 143.398 675.993 130.79 670.149 121.916C664.413 113.041 656.026 108.604 644.987 108.604C630.268 108.604 620.149 114.232 614.63 125.487V197.403C620.366 208.983 630.593 214.773 645.311 214.773C667.714 214.773 678.915 196.428 678.915 159.74Z" fill="#7A7A7A"/>
<path d="M797.915 249.351H750.837V0H797.915V249.351Z" fill="#7A7A7A"/>
<path d="M910.909 252.597C885.151 252.597 864.155 244.697 847.922 228.896C831.796 213.095 823.733 192.045 823.733 165.747V161.201C823.733 143.561 827.142 127.814 833.961 113.961C840.779 100 850.411 89.2857 862.857 81.8181C875.411 74.2424 889.697 70.4545 905.714 70.4545C929.74 70.4545 948.625 78.0303 962.37 93.1818C976.223 108.333 983.149 129.816 983.149 157.63V176.786H871.298C872.813 188.257 877.359 197.457 884.935 204.383C892.619 211.309 902.305 214.773 913.993 214.773C932.067 214.773 946.19 208.225 956.363 195.13L979.415 220.941C972.381 230.898 962.857 238.69 950.844 244.318C938.831 249.838 925.519 252.597 910.909 252.597ZM905.552 108.442C896.244 108.442 888.668 111.58 882.824 117.857C877.088 124.134 873.409 133.117 871.785 144.805H937.045V141.071C936.829 130.682 934.015 122.673 928.603 117.045C923.192 111.309 915.508 108.442 905.552 108.442Z" fill="#7A7A7A"/>
<path d="M254.263 249.351H207.186V73.7013H254.263V249.351ZM204.426 28.2467C204.426 21.2121 206.753 15.4221 211.406 10.8766C216.168 6.33117 222.608 4.05844 230.724 4.05844C238.733 4.05844 245.118 6.33117 249.88 10.8766C254.642 15.4221 257.023 21.2121 257.023 28.2467C257.023 35.3896 254.588 41.2337 249.718 45.7792C244.956 50.3246 238.625 52.5974 230.724 52.5974C222.824 52.5974 216.439 50.3246 211.569 45.7792C206.807 41.2337 204.426 35.3896 204.426 28.2467Z" fill="#7A7A7A"/>
<path d="M1198.78 249.351H1150.07V148.052H1055.11V249.351H1006.41V12.987H1055.11V108.766H1150.07V12.987H1198.78V249.351Z" fill="#7A7A7A"/>
<path d="M1224.43 159.903C1224.43 142.478 1227.79 126.948 1234.5 113.312C1241.21 99.6753 1250.84 89.1233 1263.39 81.6558C1276.06 74.1883 1290.72 70.4545 1307.39 70.4545C1331.09 70.4545 1350.41 77.7056 1365.34 92.2077C1380.38 106.71 1388.77 126.407 1390.5 151.299L1390.83 163.312C1390.83 190.26 1383.31 211.905 1368.26 228.247C1353.22 244.48 1333.04 252.597 1307.71 252.597C1282.39 252.597 1262.15 244.48 1247 228.247C1231.95 212.013 1224.43 189.935 1224.43 162.013V159.903ZM1271.35 163.312C1271.35 179.978 1274.49 192.749 1280.76 201.623C1287.04 210.389 1296.02 214.773 1307.71 214.773C1319.07 214.773 1327.95 210.444 1334.33 201.786C1340.72 193.019 1343.91 179.058 1343.91 159.903C1343.91 143.561 1340.72 130.898 1334.33 121.916C1327.95 112.933 1318.97 108.441 1307.39 108.441C1295.91 108.441 1287.04 112.933 1280.76 121.916C1274.49 130.79 1271.35 144.589 1271.35 163.312Z" fill="#7A7A7A"/>
<path d="M1462.59 249.351H1415.51V0H1462.59V249.351Z" fill="#7A7A7A"/>
<path d="M1487.43 160.227C1487.43 132.846 1493.55 111.039 1505.78 94.8051C1518.11 78.5714 1534.94 70.4545 1556.26 70.4545C1573.36 70.4545 1587.49 76.8398 1598.63 89.6103V0H1645.71V249.351H1603.34L1601.07 230.682C1589.38 245.292 1574.34 252.597 1555.94 252.597C1535.27 252.597 1518.65 244.48 1506.1 228.247C1493.65 211.905 1487.43 189.231 1487.43 160.227ZM1534.35 163.636C1534.35 180.086 1537.22 192.695 1542.95 201.461C1548.69 210.227 1557.02 214.61 1567.95 214.61C1582.45 214.61 1592.68 208.496 1598.63 196.266V126.948C1592.79 114.719 1582.67 108.604 1568.28 108.604C1545.66 108.604 1534.35 126.948 1534.35 163.636Z" fill="#7A7A7A"/>
</svg>
