<?xml version="1.0" encoding="UTF-8"?>
<svg
    width="190px"
    height="33px"
    viewBox="0 0 190 33"
    version="1.1"
    xmlns="http://www.w3.org/2000/svg"
    xmlns:xlink="http://www.w3.org/1999/xlink"
>
    <g
        id="Page-1"
        stroke="none"
        stroke-width="1"
        fill="none"
        fill-rule="evenodd"
    >
        <g
            id="Group"
            fill-rule="nonzero"
        >
            <g id="man">
                <polygon
                    id="Path"
                    fill="#7A7A7A"
                    points="28.3888 19.3267 20.6365 29.2496 19.7703 22.3227 14.6598 21.7702"
                />
                <polygon
                    id="Path"
                    fill="#7A7A7A"
                    points="20.5282 17.3718 14.6598 21.7703 15.8724 10.2749"
                />
                <polygon
                    id="Path"
                    fill="#7A7A7A"
                    points="20.3983 17.3506 15.8724 10.2749 20.1601 11.2523"
                />
                <polygon
                    id="Path"
                    fill="#7A7A7A"
                    points="34.9935 21.239 34.9718 21.239 33.7808 29.2709 20.6365 29.2709 20.6365 29.2496 28.3888 19.3267"
                />
                <polygon
                    id="Path"
                    fill="#7A7A7A"
                    points="14.6598 21.7702 20.4416 17.4356 20.3983 17.3506 28.3888 19.3267"
                />
                <polygon
                    id="Path"
                    fill="#7A7A7A"
                    points="23.6681 15.1195 20.5282 17.3718 20.3982 17.3506 20.16 11.2523 28.2805 13.1434 28.3022 13.1222 28.9951 15.6082"
                />
                <polygon
                    id="Path"
                    fill="#7A7A7A"
                    points="39.606 20.7928 34.9935 21.239 28.3889 19.3267 28.7787 19.1992 23.6898 15.1195 34.6254 19.1142 36.7692 19.9216 37.2456 19.4329 36.5094 16.1182 33.9974 16.0757 29.8397 15.6932 33.023 14.4183 36.7692 15.757 37.0507 9.67993 37.3106 9.76493"
                />
                <polygon
                    id="Path"
                    fill="#7A7A7A"
                    points="37.2456 19.4329 36.7692 19.9216 34.6254 19.1142 33.9974 16.0757 36.5094 16.1182"
                />
                <polygon
                    id="Path"
                    fill="#7A7A7A"
                    points="28.5621 2.54051 26.0718 3.15672 23.1484 4.47411 23.1917 2.753 27.8908 0.0119629"
                />
                <polygon
                    id="Path"
                    fill="#7A7A7A"
                    points="29.8181 7.27891 23.0835 7.23641 23.1485 4.47413 26.0718 3.15673 28.5621 2.54053"
                />
                <polygon
                    id="Path"
                    fill="#7A7A7A"
                    points="15.8725 10.3386 6.47436 29.4196 6.45271 29.4196 0.605957 30.9283"
                />
                <polygon
                    id="Path"
                    fill="#7A7A7A"
                    points="15.9158 10.2749 14.6598 21.7703 8.9863 30.9283 6.47437 29.4197 15.8725 10.3386"
                />
                <polygon
                    id="Path"
                    fill="#7A7A7A"
                    points="18.1895 22.1527 15.0063 30.1209 8.98633 30.9283 14.6598 21.7703"
                />
                <polygon
                    id="Path"
                    fill="#7A7A7A"
                    points="20.6366 29.2709 19.9869 32.0119 15.0497 30.1208 15.0063 30.1208 18.1896 22.1527 19.7704 22.3227"
                />
                <polygon
                    id="Path"
                    fill="#7A7A7A"
                    points="28.2806 13.1435 15.9158 10.275 23.0835 7.23645 23.1917 7.23645 27.3061 11.9961"
                />
                <polygon
                    id="Path"
                    fill="#7A7A7A"
                    points="36.8342 9.61622 36.8125 9.61622 28.2806 13.1434 27.3062 11.996 31.1823 7.68262"
                />
                <polygon
                    id="Path"
                    fill="#7A7A7A"
                    points="31.1823 7.68267 27.3062 11.9961 23.0835 7.23645 29.8181 7.27895 31.1607 7.68267"
                />
                <polygon
                    id="Path"
                    fill="#7A7A7A"
                    points="36.8124 9.61621 35.5781 12.1873 33.0445 14.4183 33.0229 14.4183 29.8397 15.6932 28.9951 15.6082 28.2805 13.1434 36.7908 9.63746"
                />
                <polygon
                    id="Path"
                    fill="#7A7A7A"
                    points="28.7786 19.1992 28.3888 19.3267 20.5499 17.3931 20.5282 17.3718 23.6898 15.1195"
                />
                <polygon
                    id="Path"
                    fill="#7A7A7A"
                    points="34.6255 19.1142 23.6899 15.1195 23.6682 15.1195 28.9953 15.6082 29.8398 15.6932 33.9975 16.0757"
                />
                <polygon
                    id="Path"
                    fill="#7A7A7A"
                    points="37.0507 9.67996 36.7692 15.757 33.0229 14.4183 33.0446 14.4183 35.5782 12.1873 36.8125 9.61621 36.8342 9.61621"
                />
            </g>
            <g
                id="changehero"
                transform="translate(50.000000, 7.000000)"
            >
                <path
                    d="M11.3068,16.2708 L12.3708,17.8948 C11.2881,19.2948 9.67345,19.9948 7.52678,19.9948 C5.51078,19.9948 3.87745,19.3975 2.62678,18.2028 C1.39478,17.0082 0.778783,15.4122 0.778783,13.4148 C0.778783,11.5668 1.38545,10.0082 2.59878,8.73884 C3.81212,7.46951 5.33345,6.83484 7.16278,6.83484 C9.36545,6.83484 11.0175,7.38551 12.1188,8.48684 L11.0828,10.2508 C10.1121,9.37351 8.90812,8.93484 7.47078,8.93484 C6.29478,8.93484 5.27745,9.36418 4.41878,10.2228 C3.57878,11.0628 3.15878,12.1268 3.15878,13.4148 C3.15878,14.7775 3.58812,15.8602 4.44678,16.6628 C5.32412,17.4842 6.40678,17.8948 7.69478,17.8948 C9.15078,17.8948 10.3548,17.3535 11.3068,16.2708 Z M17.5307,19.7148 L15.2907,19.7148 L15.2907,0.114842 L17.5307,0.114842 L17.5307,8.57084 C18.6507,7.45084 20.0227,6.89084 21.6467,6.89084 C25.1373,6.89084 26.8827,8.75751 26.8827,12.4908 L26.8827,19.7148 L24.6427,19.7148 L24.6427,12.7988 C24.6427,10.2602 23.4667,8.99084 21.1147,8.99084 C20.4613,8.99084 19.7987,9.14018 19.1267,9.43884 C18.4733,9.73751 17.9413,10.1202 17.5307,10.5868 L17.5307,19.7148 Z M31.3298,9.77484 L30.7418,7.98284 C31.9925,7.21751 33.3925,6.83484 34.9418,6.83484 C36.6405,6.83484 37.8725,7.25484 38.6378,8.09484 C39.4032,8.93484 39.7858,10.2322 39.7858,11.9868 L39.7858,19.7148 L37.6578,19.7148 L37.6578,18.0908 C36.6685,19.3042 35.3245,19.9108 33.6258,19.9108 C32.4685,19.9108 31.5352,19.5655 30.8258,18.8748 C30.1165,18.1655 29.7618,17.2135 29.7618,16.0188 C29.7618,14.7868 30.2005,13.8162 31.0778,13.1068 C31.9552,12.3788 33.1032,12.0148 34.5218,12.0148 C35.8472,12.0148 36.8925,12.2855 37.6578,12.8268 C37.6578,11.4082 37.4618,10.3908 37.0698,9.77484 C36.6778,9.15884 35.9218,8.85084 34.8018,8.85084 C33.6632,8.85084 32.5058,9.15884 31.3298,9.77484 Z M34.4098,17.8948 C35.6605,17.8948 36.7432,17.3535 37.6578,16.2708 L37.6578,14.6748 C36.8738,14.1148 35.9312,13.8348 34.8298,13.8348 C34.0645,13.8348 33.4205,14.0215 32.8978,14.3948 C32.3938,14.7495 32.1418,15.2535 32.1418,15.9068 C32.1418,16.5228 32.3378,17.0082 32.7298,17.3628 C33.1405,17.7175 33.7005,17.8948 34.4098,17.8948 Z M45.7768,19.7148 L43.5368,19.7148 L43.5368,7.11484 L45.7768,7.11484 L45.7768,8.65484 C46.2434,8.13218 46.8501,7.71218 47.5968,7.39484 C48.3621,7.05884 49.1274,6.89084 49.8928,6.89084 C53.3834,6.89084 55.1288,8.73884 55.1288,12.4348 L55.1288,19.7148 L52.8888,19.7148 L52.8888,12.8548 C52.8888,10.2788 51.7034,8.99084 49.3328,8.99084 C47.9141,8.99084 46.7288,9.53218 45.7768,10.6148 L45.7768,19.7148 Z M57.1679,21.5348 C57.1679,20.5642 57.5226,19.7522 58.2319,19.0988 C58.9413,18.4455 59.9306,17.9788 61.1999,17.6988 C60.9946,17.4375 60.8919,17.0922 60.8919,16.6628 C60.8919,16.2335 61.0039,15.8788 61.2279,15.5988 C60.3319,15.2442 59.6319,14.7028 59.1279,13.9748 C58.6426,13.2468 58.3999,12.4068 58.3999,11.4548 C58.3999,10.1482 58.8666,9.05618 59.7999,8.17884 C60.7519,7.28284 62.0026,6.83484 63.5519,6.83484 C64.7466,6.83484 65.8106,7.14284 66.7439,7.75884 L70.4399,6.86284 L70.4959,8.68284 L68.1159,9.27084 C68.5079,9.92418 68.7039,10.6522 68.7039,11.4548 C68.7039,12.7428 68.2279,13.8255 67.2759,14.7028 C66.3426,15.5615 65.1013,15.9908 63.5519,15.9908 C63.1226,15.9908 62.8426,15.9815 62.7119,15.9628 C62.6186,16.1868 62.5719,16.4202 62.5719,16.6628 C62.5719,16.9988 62.6559,17.2788 62.8239,17.5028 C62.8613,17.5028 62.9733,17.5028 63.1599,17.5028 C63.3653,17.4842 63.5053,17.4748 63.5799,17.4748 C65.5399,17.4748 67.0986,17.8295 68.2559,18.5388 C69.4133,19.2295 69.9919,20.2282 69.9919,21.5348 C69.9919,22.8042 69.4133,23.7842 68.2559,24.4748 C67.0986,25.1842 65.5399,25.5388 63.5799,25.5388 C61.6013,25.5388 60.0333,25.1935 58.8759,24.5028 C57.7373,23.8308 57.1679,22.8415 57.1679,21.5348 Z M67.8919,21.5348 C67.8919,20.8442 67.5093,20.2935 66.7439,19.8828 C65.9786,19.4908 64.9239,19.2948 63.5799,19.2948 C62.2359,19.2948 61.1813,19.4908 60.4159,19.8828 C59.6506,20.2935 59.2679,20.8442 59.2679,21.5348 C59.2679,22.2255 59.6506,22.7575 60.4159,23.1308 C61.1813,23.5228 62.2359,23.7188 63.5799,23.7188 C64.9239,23.7188 65.9786,23.5322 66.7439,23.1588 C67.5093,22.7855 67.8919,22.2442 67.8919,21.5348 Z M60.4999,11.4548 C60.4999,12.2388 60.7799,12.8922 61.3399,13.4148 C61.9186,13.9188 62.6559,14.1708 63.5519,14.1708 C64.4479,14.1708 65.1759,13.9188 65.7359,13.4148 C66.3146,12.9108 66.6039,12.2575 66.6039,11.4548 C66.6039,10.6522 66.3239,9.98951 65.7639,9.46684 C65.1853,8.92551 64.4479,8.65484 63.5519,8.65484 C62.6559,8.65484 61.9186,8.92551 61.3399,9.46684 C60.7799,9.98951 60.4999,10.6522 60.4999,11.4548 Z M82.6799,16.5788 L83.3799,18.3428 C82.1665,19.4442 80.5892,19.9948 78.6479,19.9948 C76.5945,19.9948 74.9612,19.3975 73.7479,18.2028 C72.5159,17.0082 71.8999,15.4122 71.8999,13.4148 C71.8999,11.5295 72.4785,9.96151 73.6359,8.71084 C74.7745,7.46018 76.3612,6.83484 78.3959,6.83484 C80.0759,6.83484 81.4665,7.37618 82.5679,8.45884 C83.6879,9.52284 84.2479,10.9042 84.2479,12.6028 C84.2479,13.1442 84.2012,13.6482 84.1079,14.1148 L74.4199,14.1148 C74.5132,15.2908 74.9519,16.2148 75.7359,16.8868 C76.5385,17.5588 77.5652,17.8948 78.8159,17.8948 C80.4585,17.8948 81.7465,17.4562 82.6799,16.5788 Z M78.2839,8.93484 C77.1825,8.93484 76.2679,9.24284 75.5399,9.85884 C74.8305,10.4748 74.4105,11.2868 74.2799,12.2948 L81.9239,12.2948 C81.8679,11.2495 81.5132,10.4282 80.8599,9.83084 C80.2252,9.23351 79.3665,8.93484 78.2839,8.93484 Z"
                    id="Shape"
                    fill="#7A7A7A"
                />
                <path
                    d="M89.5268,19.7148 L87.2868,19.7148 L87.2868,0.114842 L89.5268,0.114842 L89.5268,8.57084 C90.6468,7.45084 92.0188,6.89084 93.6428,6.89084 C97.1334,6.89084 98.8788,8.75751 98.8788,12.4908 L98.8788,19.7148 L96.6388,19.7148 L96.6388,12.7988 C96.6388,10.2602 95.4628,8.99084 93.1108,8.99084 C92.4574,8.99084 91.7948,9.14018 91.1228,9.43884 C90.4694,9.73751 89.9374,10.1202 89.5268,10.5868 L89.5268,19.7148 Z M112.594,16.5788 L113.294,18.3428 C112.081,19.4442 110.503,19.9948 108.562,19.9948 C106.509,19.9948 104.875,19.3975 103.662,18.2028 C102.43,17.0082 101.814,15.4122 101.814,13.4148 C101.814,11.5295 102.393,9.96151 103.55,8.71084 C104.689,7.46018 106.275,6.83484 108.31,6.83484 C109.99,6.83484 111.381,7.37618 112.482,8.45884 C113.602,9.52284 114.162,10.9042 114.162,12.6028 C114.162,13.1442 114.115,13.6482 114.022,14.1148 L104.334,14.1148 C104.427,15.2908 104.866,16.2148 105.65,16.8868 C106.453,17.5588 107.479,17.8948 108.73,17.8948 C110.373,17.8948 111.661,17.4562 112.594,16.5788 Z M108.198,8.93484 C107.097,8.93484 106.182,9.24284 105.454,9.85884 C104.745,10.4748 104.325,11.2868 104.194,12.2948 L111.838,12.2948 C111.782,11.2495 111.427,10.4282 110.774,9.83084 C110.139,9.23351 109.281,8.93484 108.198,8.93484 Z M119.441,19.7148 L117.201,19.7148 L117.201,7.11484 L119.441,7.11484 L119.441,8.59884 C120.187,7.46018 121.242,6.89084 122.605,6.89084 C123.482,6.89084 124.135,7.04951 124.565,7.36684 L123.781,9.46684 C123.239,9.14951 122.67,8.99084 122.073,8.99084 C120.934,8.99084 120.057,9.58818 119.441,10.7828 L119.441,19.7148 Z M127.724,18.1468 C126.492,16.8775 125.876,15.3002 125.876,13.4148 C125.876,11.5108 126.492,9.94284 127.724,8.71084 C128.975,7.46018 130.599,6.83484 132.596,6.83484 C134.594,6.83484 136.208,7.46018 137.44,8.71084 C138.691,9.94284 139.316,11.5108 139.316,13.4148 C139.316,15.3188 138.691,16.8962 137.44,18.1468 C136.208,19.3788 134.594,19.9948 132.596,19.9948 C130.618,19.9948 128.994,19.3788 127.724,18.1468 Z M129.488,10.1948 C128.667,11.0162 128.256,12.0895 128.256,13.4148 C128.256,14.7402 128.658,15.8135 129.46,16.6348 C130.282,17.4748 131.327,17.8948 132.596,17.8948 C133.866,17.8948 134.902,17.4842 135.704,16.6628 C136.526,15.8228 136.936,14.7402 136.936,13.4148 C136.936,12.1268 136.526,11.0535 135.704,10.1948 C134.902,9.35484 133.866,8.93484 132.596,8.93484 C131.327,8.93484 130.291,9.35484 129.488,10.1948 Z"
                    id="Shape"
                    fill="#7A7A7A"
                />
            </g>
        </g>
    </g>
</svg>
